<svg xmlns="http://www.w3.org/2000/svg" viewBox="0 0 192 192">
    <!-- Background -->
    <rect width="192" height="192" fill="white" />

    <!-- Folder -->
    <g transform="translate(24, 48)">
        <path d="M0,0 L60,0 L72,-12 L144,-12 L144,108 L0,108 Z" fill="#24292E" />
    </g>

    <!-- GitHub Logo -->
    <g transform="translate(66, 84)">
        <path
            d="M30,0 C13.432,0 0,13.432 0,30 C0,43.285 8.597,54.584 20.521,58.57 C22.021,58.837 22.571,57.921 22.571,57.121 C22.571,56.396 22.546,54.463 22.546,51.971 C14.186,53.773 12.436,48.337 12.436,48.337 C11.066,44.843 9.091,43.927 9.091,43.927 C6.366,42.051 9.291,42.051 9.291,42.051 C12.311,42.243 13.907,45.2 13.907,45.2 C16.582,49.837 20.921,48.512 22.696,47.737 C22.946,45.786 23.721,44.461 24.571,43.736 C17.896,43.011 10.921,40.401 10.921,28.777 C10.921,25.489 12.086,22.814 13.957,20.726 C13.657,19.976 12.621,16.863 14.261,12.676 C14.261,12.676 16.782,11.876 22.546,15.834 C24.932,15.184 27.466,14.859 30,14.859 C32.534,14.859 35.068,15.184 37.454,15.834 C43.218,11.876 45.739,12.676 45.739,12.676 C47.379,16.863 46.343,19.976 46.043,20.726 C47.914,22.814 49.079,25.489 49.079,28.777 C49.079,40.401 42.104,43.011 35.429,43.736 C36.429,44.611 37.429,46.361 37.429,49.128 C37.429,53.156 37.404,56.121 37.404,57.121 C37.404,57.921 37.954,58.837 39.454,58.57 C51.378,54.584 59.975,43.285 59.975,30 C60,13.432 46.568,0 30,0 Z"
            fill="white" />
    </g>
</svg>