<svg xmlns="http://www.w3.org/2000/svg" viewBox="0 0 512 512">
    <!-- Background -->
    <rect width="512" height="512" fill="white" />

    <!-- Folder -->
    <g transform="translate(64, 128)">
        <path d="M0,0 L160,0 L192,-32 L384,-32 L384,288 L0,288 Z" fill="#24292E" />
    </g>

    <!-- GitHub Logo -->
    <g transform="translate(176, 224)">
        <path
            d="M80,0 C35.818,0 0,35.818 0,80 C0,115.427 22.925,145.557 54.723,156.187 C58.723,156.899 60.189,154.456 60.189,152.323 C60.189,150.389 60.123,145.235 60.123,138.589 C37.829,143.395 33.163,128.899 33.163,128.899 C29.509,119.581 24.243,117.139 24.243,117.139 C16.976,112.136 24.776,112.136 24.776,112.136 C32.829,112.648 37.085,120.533 37.085,120.533 C44.219,132.899 55.789,129.365 60.523,127.299 C61.189,122.096 63.256,118.563 65.523,116.629 C47.723,114.696 29.123,107.736 29.123,76.739 C29.123,67.971 32.229,60.837 37.219,55.269 C36.419,53.269 33.656,44.968 38.029,33.803 C38.029,33.803 44.752,31.669 60.123,42.224 C66.485,40.491 73.243,39.624 80,39.624 C86.757,39.624 93.515,40.491 99.877,42.224 C115.248,31.669 121.971,33.803 121.971,33.803 C126.344,44.968 123.581,53.269 122.781,55.269 C127.771,60.837 130.877,67.971 130.877,76.739 C130.877,107.736 112.277,114.696 94.477,116.629 C97.144,119.029 99.811,123.629 99.811,131.008 C99.811,141.749 99.744,149.656 99.744,152.323 C99.744,154.456 101.211,156.899 105.211,156.187 C137.009,145.557 159.934,115.427 159.934,80 C160,35.818 124.182,0 80,0 Z"
            fill="white" />
    </g>
</svg>