<svg xmlns="http://www.w3.org/2000/svg" viewBox="0 0 384 384">
    <!-- Background -->
    <rect width="384" height="384" fill="white" />

    <!-- Folder -->
    <g transform="translate(48, 96)">
        <path d="M0,0 L120,0 L144,-24 L288,-24 L288,216 L0,216 Z" fill="#24292E" />
    </g>

    <!-- GitHub Logo -->
    <g transform="translate(132, 168)">
        <path
            d="M60,0 C26.864,0 0,26.864 0,60 C0,86.57 17.194,109.168 41.042,117.14 C44.042,117.674 45.142,115.842 45.142,114.242 C45.142,112.792 45.092,108.926 45.092,103.942 C28.372,107.546 24.872,96.674 24.872,96.674 C22.132,89.686 18.182,87.854 18.182,87.854 C12.732,84.102 18.582,84.102 18.582,84.102 C24.622,84.486 27.814,90.4 27.814,90.4 C33.164,99.674 41.842,97.024 45.392,95.474 C45.892,91.572 47.442,88.922 49.142,87.472 C35.792,86.022 21.842,80.802 21.842,57.554 C21.842,50.978 24.172,45.628 27.914,41.452 C27.314,39.952 25.242,33.726 28.522,25.352 C28.522,25.352 33.564,23.752 45.092,31.668 C49.864,30.368 54.932,29.718 60,29.718 C65.068,29.718 70.136,30.368 74.908,31.668 C86.436,23.752 91.478,25.352 91.478,25.352 C94.758,33.726 92.686,39.952 92.086,41.452 C95.828,45.628 98.158,50.978 98.158,57.554 C98.158,80.802 84.208,86.022 70.858,87.472 C72.858,89.222 74.858,92.722 74.858,98.256 C74.858,106.312 74.808,112.242 74.808,114.242 C74.808,115.842 75.908,117.674 78.908,117.14 C102.756,109.168 119.95,86.57 119.95,60 C120,26.864 93.136,0 60,0 Z"
            fill="white" />
    </g>
</svg>